<?xml version="1.0" encoding="utf-8"?>
<!-- Generator: Adobe Illustrator 18.1.1, SVG Export Plug-In . SVG Version: 6.00 Build 0)  -->
<!DOCTYPE svg PUBLIC "-//W3C//DTD SVG 1.1//EN" "http://www.w3.org/Graphics/SVG/1.1/DTD/svg11.dtd">
<svg version="1.1" id="Layer_1" xmlns="http://www.w3.org/2000/svg" xmlns:xlink="http://www.w3.org/1999/xlink" x="0px" y="0px"
	 viewBox="0 0 400 400" enable-background="new 0 0 400 400" xml:space="preserve">
<path fill="#3A3A3A" d="M392.6,183.2L379,169.6c-1.8-1.8-4.8-1.8-6.6,0l-10.1,10.1l-1-1c-1.8-1.8-4.8-1.8-6.6,0L205.7,327.9
	c-0.4,0.4-0.7,0.8-0.9,1.3l-19.5,41.5c-0.8,1.8-0.5,3.9,0.9,5.3c0.9,0.9,2.1,1.4,3.3,1.4c0.7,0,1.3-0.1,2-0.4l41.6-19.4
	c0.5-0.2,0.9-0.5,1.3-0.9l127.9-127.9l6.2,6.1l-70.2,70.2l6.6,6.6l73.5-73.5c0.9-0.9,1.4-2.1,1.4-3.3c0-1.2-0.5-2.4-1.4-3.3
	l-9.4-9.4l14.6-14.6c0.9-0.9,1.4-2.1,1.4-3.3c0-1.2-0.5-2.4-1.4-3.3l-1-1l10.1-10.1C394.5,188,394.5,185.1,392.6,183.2z M212.8,334
	l15.5,15.5L199.2,363L212.8,334z M234.9,342.9l-15.6-15.6L358,188.7l10.3,10.2l4.3,4.3c0,0,0,0,0,0l1,1L234.9,342.9z M375.9,193.4
	l-7-7l6.8-6.8l7,7L375.9,193.4z"/>
<g>
	<path fill="#3A3A3A" d="M137.1,264.9c-5.6,1.6-8.9,7.4-7.3,13c1.6,5.6,7.4,8.9,13,7.3s8.9-7.4,7.3-13
		C148.5,266.6,142.7,263.3,137.1,264.9z"/>
	<path fill="#3A3A3A" d="M73.6,171c-5.6,1.6-8.9,7.4-7.3,13s7.4,8.9,13,7.3c5.6-1.6,8.9-7.4,7.3-13C85.1,172.7,79.2,169.4,73.6,171z
		"/>
	<path fill="#3A3A3A" d="M167.1,33.3L25.9,72.7l22.6,80.7L189.6,114L167.1,33.3L167.1,33.3z M56.9,138.5l-16-57.3l117.7-32.9
		l16,57.3L56.9,138.5z"/>
	<path fill="#3A3A3A" d="M117.8,195.9c-5.6,1.6-8.9,7.4-7.3,13c1.6,5.6,7.4,8.9,13,7.3c5.6-1.6,8.9-7.4,7.3-13
		S123.4,194.3,117.8,195.9z"/>
	<path fill="#3A3A3A" d="M83.3,205.5c-5.6,1.6-8.9,7.4-7.3,13c1.6,5.6,7.4,8.9,13,7.3s8.9-7.4,7.3-13
		C94.7,207.2,88.9,204,83.3,205.5z"/>
	<path fill="#3A3A3A" d="M102.6,274.6c-5.6,1.6-8.9,7.4-7.3,13c1.6,5.6,7.4,8.9,13,7.3s8.9-7.4,7.3-13
		C114,276.3,108.2,273,102.6,274.6z"/>
	<path fill="#3A3A3A" d="M108.2,161.4c-5.6,1.6-8.9,7.4-7.3,13s7.4,8.9,13,7.3s8.9-7.4,7.3-13C119.6,163.1,113.8,159.8,108.2,161.4z
		"/>
	<path fill="#3A3A3A" d="M92.9,240c-5.6,1.6-8.9,7.4-7.3,13c1.6,5.6,7.4,8.9,13,7.3s8.9-7.4,7.3-13C104.4,241.8,98.5,238.5,92.9,240
		z"/>
	<path fill="#3A3A3A" d="M127.4,230.4c-5.6,1.6-8.9,7.4-7.3,13c1.6,5.6,7.4,8.9,13,7.3s8.9-7.4,7.3-13
		C138.9,232.1,133.1,228.8,127.4,230.4z"/>
	<path fill="#3A3A3A" d="M186.8,176.6c-5.6,1.6-8.9,7.4-7.3,13c1.6,5.6,7.4,8.9,13,7.3s8.9-7.4,7.3-13S192.4,175,186.8,176.6z"/>
	<path fill="#3A3A3A" d="M177.2,142.1c-5.6,1.6-8.9,7.4-7.3,13s7.4,8.9,13,7.3s8.9-7.4,7.3-13C188.6,143.8,182.8,140.5,177.2,142.1z
		"/>
	<path fill="#3A3A3A" d="M160.7,16.4L22.6,55C12.3,57.9,6.2,68.7,9.1,79.1l67.5,241.6c2.9,10.4,13.7,16.4,24.1,13.5l138.1-38.6
		c10.4-2.9,16.4-13.7,13.6-24.1L184.8,30C181.9,19.6,171.1,13.5,160.7,16.4z M20.8,75.8c-1.1-3.9,1.2-8,5.1-9.1L164,28.1
		c3.9-1.1,8,1.2,9.1,5.1l67.5,241.6c1.1,3.9-1.2,8-5.1,9.1L97.4,322.5c-3.9,1.1-8-1.2-9.1-5.1C88.3,317.4,20.8,75.8,20.8,75.8z"/>
	<path fill="#3A3A3A" d="M196.5,211.1c-5.6,1.6-8.9,7.4-7.3,13l9.6,34.5c1.6,5.6,7.4,8.9,13,7.3c5.6-1.6,8.9-7.4,7.3-13l-9.6-34.5
		C207.9,212.8,202.1,209.5,196.5,211.1z"/>
	<path fill="#3A3A3A" d="M162,220.7c-5.6,1.6-8.9,7.4-7.3,13c1.6,5.6,7.4,8.9,13,7.3s8.9-7.4,7.3-13
		C173.4,222.5,167.6,219.2,162,220.7z"/>
	<path fill="#3A3A3A" d="M142.7,151.7c-5.6,1.6-8.9,7.4-7.3,13s7.4,8.9,13,7.3s8.9-7.4,7.3-13C154.1,153.4,148.3,150.1,142.7,151.7z
		"/>
	<path fill="#3A3A3A" d="M171.6,255.3c-5.6,1.6-8.9,7.4-7.3,13c1.6,5.6,7.4,8.9,13,7.3c5.6-1.6,8.9-7.4,7.3-13
		C183,257,177.2,253.7,171.6,255.3z"/>
	<path fill="#3A3A3A" d="M152.3,186.2c-5.6,1.6-8.9,7.4-7.3,13s7.4,8.9,13,7.3s8.9-7.4,7.3-13S157.9,184.7,152.3,186.2z"/>
</g>
</svg>
