<?xml version="1.0" encoding="utf-8"?>
<!-- Generator: Adobe Illustrator 18.1.1, SVG Export Plug-In . SVG Version: 6.00 Build 0)  -->
<!DOCTYPE svg PUBLIC "-//W3C//DTD SVG 1.1//EN" "http://www.w3.org/Graphics/SVG/1.1/DTD/svg11.dtd">
<svg version="1.1" id="Layer_1" xmlns="http://www.w3.org/2000/svg" xmlns:xlink="http://www.w3.org/1999/xlink" x="0px" y="0px"
	 viewBox="0 0 400 400" enable-background="new 0 0 400 400" xml:space="preserve">
<path fill="#3A3A3A" d="M231.1,372.6L81.2,332.7c-20.6-5.5-32.9-26.7-27.4-47.3l60.5-227.1c2.7-10,10.2-18,20.1-21.3l34-11.2
	c1.2-0.4,2.6-0.4,3.8-0.1l179.6,47.8c3.5,0.9,5.7,4.6,4.7,8.2L287.9,339c-0.3,1.3-1,2.4-2,3.3l-26.5,23.6
	C251.6,372.7,241.1,375.3,231.1,372.6z M170.6,39.1l-32.1,10.6c-5.6,1.8-9.8,6.3-11.4,12L66.7,288.8c-3.6,13.5,4.5,27.4,17.9,30.9
	l149.9,39.9c5.6,1.5,11.7,0.1,16-3.8l25-22.3l66.3-248.9C341.8,84.7,170.6,39.1,170.6,39.1z"/>
<path fill="#3A3A3A" d="M249.5,198.1c-1.5-0.4-2.9-1.3-3.8-2.7l-16.5-24.6l-26.6,13.1c-2.3,1.2-5.1,0.9-7.2-0.8
	c-2-1.6-2.9-4.3-2.2-6.9L219,79.6c0.9-3.5,4.6-5.7,8.2-4.7c3.5,0.9,5.7,4.6,4.7,8.2l-22,82.4l18.6-9.2c3-1.5,6.7-0.5,8.5,2.3
	l11.6,17.2l22-82.4c0.9-3.5,4.6-5.7,8.2-4.7c3.5,0.9,5.7,4.6,4.7,8.2l-25.7,96.6c-0.7,2.5-2.8,4.4-5.3,4.9
	C251.4,198.4,250.4,198.4,249.5,198.1z"/>
<path fill="#3A3A3A" d="M245.3,369.5c-3.5-0.9-5.7-4.6-4.7-8.2l68.6-257.7l-180.4-48c-3.5-0.9-5.7-4.6-4.7-8.2
	c0.9-3.5,4.6-5.7,8.2-4.7l186.8,49.8c3.5,0.9,5.7,4.6,4.7,8.2l-70.4,264.1C252.5,368.3,248.8,370.4,245.3,369.5z"/>
</svg>
