<?xml version="1.0" encoding="utf-8"?>
<!-- Generator: Adobe Illustrator 18.1.1, SVG Export Plug-In . SVG Version: 6.00 Build 0)  -->
<!DOCTYPE svg PUBLIC "-//W3C//DTD SVG 1.1//EN" "http://www.w3.org/Graphics/SVG/1.1/DTD/svg11.dtd">
<svg version="1.1" id="Layer_1" xmlns="http://www.w3.org/2000/svg" xmlns:xlink="http://www.w3.org/1999/xlink" x="0px" y="0px"
	 viewBox="0 0 400 400" enable-background="new 0 0 400 400" xml:space="preserve">
<g>
	<path fill="#FFFFFF" d="M164,145.9c-16,0-29-13-29-29s13-29,29-29s29,13,29,29S180,145.9,164,145.9z M164,93.9
		c-12.7,0-23,10.3-23,23c0,12.7,10.3,23,23,23s23-10.3,23-23C187,104.2,176.7,93.9,164,93.9z"/>
	<path fill="#FFFFFF" d="M164,150L164,150c-0.1,0-0.3,0-0.4,0c-0.1,0-0.3,0-0.4,0v0c-23.4,0.4-42.3,19.5-42.3,43h6
		c0-20.3,16.4-36.8,36.7-37c20.3,0.2,36.7,16.7,36.7,37h6C206.2,169.5,187.3,150.4,164,150z"/>
	<rect x="123.9" y="221" fill="#FFFFFF" width="148.2" height="12"/>
	<rect x="123.9" y="257.1" fill="#FFFFFF" width="148.2" height="12"/>
	<rect x="123.9" y="293.1" fill="#FFFFFF" width="114.1" height="12"/>
	<path fill="#FFFFFF" d="M239.3,51.8H238h-3H90.9v296.3h218.2V129.9v-4.2L239.3,51.8z M241.1,62.4l58.1,61.5h-58.1V62.4z
		 M303.1,342.2H96.9V57.8H235v72.1h68.1L303.1,342.2L303.1,342.2z"/>
</g>
</svg>
