<?xml version="1.0" encoding="utf-8"?>
<!-- Generator: Adobe Illustrator 18.1.1, SVG Export Plug-In . SVG Version: 6.00 Build 0)  -->
<!DOCTYPE svg PUBLIC "-//W3C//DTD SVG 1.1//EN" "http://www.w3.org/Graphics/SVG/1.1/DTD/svg11.dtd">
<svg version="1.1" id="Layer_1" xmlns="http://www.w3.org/2000/svg" xmlns:xlink="http://www.w3.org/1999/xlink" x="0px" y="0px"
	 viewBox="0 0 400 400" enable-background="new 0 0 400 400" xml:space="preserve">
<path fill="#3A3A3A" d="M208.6,24c-32.4,0-64.7,11.2-90.9,33.5c-1.7,1.3-3.3,2.7-4.9,4.2l-4.9-4.9c4.7-4.4,9.5-8.5,14.7-12.2
	l-7.3-7.3c-5.1,3.7-9.9,7.9-14.6,12.3l-7.9-7.9l9-4.2c-8.8-0.6-20.2-4.3-28.5-8.1c3.8,8.4,7.5,19.8,8.1,28.6l4.2-9l7.9,7.9
	c-58.1,61.8-56.9,159,3.5,219.4c28.3,28.3,64.6,43.5,101.6,45.9v7.2c0,29.3-96.7,17.7-96.7,27c0,0.1,0.1,0.1,0.2,0.2h-0.4v8.8
	c0,4.3,2.4,7,35,9c18.3,1.1,43,1.7,69.5,1.7c26.5,0,51.1-0.6,69.5-1.7c32.7-2,35-4.8,35-9v-8.8h-0.3c0-0.1,0.2-0.1,0.2-0.2
	c0-9.3-96.8,2.3-96.8-27v-7c37-1.2,73.7-15.4,102.6-42.6l3.9,3.9c-1.3,4-0.5,8.5,2.7,11.7c4.5,4.5,11.7,4.5,16.1,0
	c4.5-4.5,4.5-11.7,0-16.1c-3.2-3.2-7.7-4-11.7-2.7l-4-4c4.4-4.7,8.6-9.5,12.3-14.6l-7.3-7.3c-3.7,5.1-7.8,10-12.2,14.7l-4.9-4.9
	c1.2-1.2,2.2-2.5,3.3-3.8c47.9-55.2,45.7-138.8-6.8-191.4C280.6,37.7,244.6,24,208.6,24L208.6,24z M158.9,43.9
	c15.6-6.4,32.4-9.8,49.7-9.8h0c34.8,0,67.6,13.6,92.2,38.2c0.8,0.8,1.6,1.8,2.4,2.6c-11.7,2-24.5,7-37.6,14.1
	c-33.1-29.4-71.2-45.3-103.5-45.3L158.9,43.9z M162.2,53.9c30.2,0,64.5,14.9,94.2,40.5c-17.6,10.7-35.2,24.4-51,38.7
	c-32.2-30.6-64.2-56.7-83.6-65.8c0.7-0.6,1.3-1.2,2-1.8C133.9,57.9,147,53.9,162.2,53.9C162.2,53.9,162.2,53.9,162.2,53.9z
	 M311.3,84.2c29.4,37.5,35.4,87.4,18,130c1.2-36-17.8-80.1-54-116.2c-0.6-0.6-1.1-1.1-1.7-1.6C287.8,89,300.7,84.8,311.3,84.2z
	 M264.3,101.5c1.3,1.2,2.5,2.4,3.8,3.6c25.2,25.2,42.5,55,48.8,84c5.3,24.4,2,45.4-9,60c-0.6,0.7-1.3,1.4-1.9,2.1
	c-11.7-25-51.7-71-93.1-111.2C230.4,124.1,248,111,264.3,101.5z M215.8,157.4c49.2,49.2,77.3,86.2,82.5,101.2
	c-10,7.5-23,11.5-38.2,11.5c-34.2,0-73.8-19.1-105.9-51.2c-1.7-1.7-3.4-3.6-5-5.4c12.1-18.9,28.6-39.3,48.4-59.1
	c2.5-2.5,5.1-5,7.7-7.5C208.7,150.4,212.2,153.9,215.8,157.4z M136.5,214.8c-9,15.1-15.7,30.1-18.2,43.8c-0.6-0.6-1.3-1.1-1.9-1.8
	c-41.5-41.5-49.1-104.2-22.9-153.5C89.8,136.8,105.2,178.7,136.5,214.8z M143.7,222.6c1.1,1.2,2.2,2.4,3.3,3.6
	c35.1,35.1,77.6,54.2,113,54.2c3.4,0,6.7-0.2,10-0.6c-18.7,10-39.7,15.3-61.5,15.3c-29.9,0-58.2-10.1-81.2-28.5
	C128.4,254.4,134.1,239.2,143.7,222.6z M114.5,74.9c13.2,4.6,43.2,26.7,83.4,65.1c-2.6,2.4-5.1,4.9-7.5,7.3
	c-17,17-34.5,37.6-48.2,58.4c-18.6-22.1-31.6-46.7-36.8-70.8C100.1,110.5,103.4,89.5,114.5,74.9z M303.2,358.9v4.5
	c-18.1,6.7-175.8,6.7-193.9,0v-4.5C141.6,364.6,271,364.6,303.2,358.9z M208.6,312.2c-39.4,0-76.5-15.4-104.4-43.2
	c-56.4-56.4-57.5-147.3-3.5-205.1l5.1,5.1c-51.3,55.1-50.3,141.4,3.4,195.1c27.4,27.4,63.4,41.2,99.4,41.2
	c34.4,0,68.7-12.7,95.7-37.8l5.1,5.1C281.9,298.1,246.3,312.2,208.6,312.2z"/>
</svg>
