<?xml version="1.0" encoding="utf-8"?>
<!-- Generator: Adobe Illustrator 18.1.1, SVG Export Plug-In . SVG Version: 6.00 Build 0)  -->
<!DOCTYPE svg PUBLIC "-//W3C//DTD SVG 1.1//EN" "http://www.w3.org/Graphics/SVG/1.1/DTD/svg11.dtd">
<svg version="1.1" id="Layer_1" xmlns="http://www.w3.org/2000/svg" xmlns:xlink="http://www.w3.org/1999/xlink" x="0px" y="0px"
	 viewBox="0 0 400 400" enable-background="new 0 0 400 400" xml:space="preserve">
<g>
	<g>
		<path fill="#FFFFFF" d="M326.7,354.1c-0.8,0-1.5-0.3-2.3-0.5c-10.8-5.5-41.2-20.3-51.7-20.3c-0.8,0-1,0-1.3,0
			c-22.8,12.3-48.7,18.8-74.8,18.8c-87.1,0-157.9-70.8-157.9-157.7c0-86.9,70.8-157.7,157.9-157.7s157.9,70.8,157.9,157.7
			c0,37.2-13.1,73.1-36.9,101.4c-1.5,5.3,5.8,30.6,13.8,51.5c0.8,2,0.3,4.3-1.3,5.5C328.9,353.6,327.9,354.1,326.7,354.1z
			 M196.6,46.7C115,46.7,48.7,113,48.7,194.4S115,342,196.6,342c24.4,0,48.7-6,70.1-17.6c1.5-0.8,3.5-1.3,5.8-1.3
			c10.5,0,31.6,9.3,44.9,15.8c-9.5-27.6-12.3-43.9-8-49.2c22.6-26.6,34.9-60.5,34.9-95.2C344.5,113,278.2,46.7,196.6,46.7z"/>
	</g>
	<g>
		<path fill="#FFFFFF" d="M278,234H113c-2.8,0-5-2.3-5-5c0-2.8,2.3-5,5-5h165c2.8,0,5,2.3,5,5C283,231.8,280.7,234,278,234z"/>
	</g>
	<g>
		<path fill="#FFFFFF" d="M278,145.4H113c-2.8,0-5-2.3-5-5s2.3-5,5-5h165c2.8,0,5,2.3,5,5S280.7,145.4,278,145.4z"/>
	</g>
	<g>
		<path fill="#FFFFFF" d="M278,175H113c-2.8,0-5-2.3-5-5s2.3-5,5-5h165c2.8,0,5,2.3,5,5S280.7,175,278,175z"/>
	</g>
	<g>
		<path fill="#FFFFFF" d="M278,204.4H113c-2.8,0-5-2.3-5-5s2.3-5,5-5h165c2.8,0,5,2.3,5,5S280.7,204.4,278,204.4z"/>
	</g>
	<g>
		<path fill="#FFFFFF" d="M173,263.7h-60c-2.8,0-5-2.3-5-5s2.3-5,5-5h60c2.8,0,5,2.3,5,5S175.8,263.7,173,263.7z"/>
	</g>
</g>
</svg>
