<?xml version="1.0" encoding="utf-8"?>
<!-- Generator: Adobe Illustrator 18.1.1, SVG Export Plug-In . SVG Version: 6.00 Build 0)  -->
<!DOCTYPE svg PUBLIC "-//W3C//DTD SVG 1.1//EN" "http://www.w3.org/Graphics/SVG/1.1/DTD/svg11.dtd">
<svg version="1.1" id="Layer_1" xmlns="http://www.w3.org/2000/svg" xmlns:xlink="http://www.w3.org/1999/xlink" x="0px" y="0px"
	 viewBox="0 0 400 400" enable-background="new 0 0 400 400" xml:space="preserve">
<path fill="#FFFFFF" d="M386.9,144.1L204.6,60.3c-1.7-0.9-3.8-0.9-5.9,0L12.8,144.1c-5.5,2.6-5.5,9.8-0.4,12.8L83,195.6v92.7
	c0,3,1.7,5.5,4.7,6.8l111.9,44.7c1.7,0.9,3.4,0.9,5.1,0l115.5-44.7c2.6-0.9,4.9-3.8,4.9-6.8v-97c0-5.1-5.3-8.5-10-6.8l-112.8,44.2
	l-58.7-25.1c-3.4-1.7-7.7,0-9.4,3.8s0,7.7,3.8,9.4l61.2,25.9c1.7,0.9,3.8,0.9,5.5,0l105.9-39.1l-0.4,80l-108.5,41.7L97,283.6v-92.3
	c0-2.6-1.3-5.1-3.8-6.4L31.7,151l170-76.6L377,154.7v122.1c0,3.8,2.7,7.2,7,7.2c3.8,0,7-3,7-7.2V150.4
	C391,147.5,389.5,145.3,386.9,144.1z"/>
</svg>
