<?xml version="1.0" encoding="utf-8"?>
<!-- Generator: Adobe Illustrator 18.1.1, SVG Export Plug-In . SVG Version: 6.00 Build 0)  -->
<!DOCTYPE svg PUBLIC "-//W3C//DTD SVG 1.1//EN" "http://www.w3.org/Graphics/SVG/1.1/DTD/svg11.dtd">
<svg version="1.1" id="Layer_1" xmlns="http://www.w3.org/2000/svg" xmlns:xlink="http://www.w3.org/1999/xlink" x="0px" y="0px"
	 viewBox="0 0 400 400" enable-background="new 0 0 400 400" xml:space="preserve">
<g sketch:type="MSPage">
	<g sketch:type="MSArtboardGroup">
		<path sketch:type="MSShapeGroup" fill="#FFFFFF" d="M310.1,283.6l-108.5,41.7l0,0L97,283.6l0,0v-92.3c0-2.6-1.3-5.1-3.8-6.4
			l-74-40.8l-0.4,12.8L204.7,73h-6l178.2,81.7l0,0v122.1c0,3.8,3,7.2,7.2,7.2c3.8,0,7.2-3,7.2-7.2V150.4c0-3-1.7-5.1-4.3-6.4
			L204.7,60.3c-1.7-0.9-3.8-0.9-6,0L12.8,144.1c-5.5,2.6-5.5,9.8-0.4,12.8l74.4,40.8l-3.8-6.4v97c0,3,1.7,5.5,4.7,6.8l111.9,44.7
			c1.7,0.9,3.4,0.9,5.1,0l115.3-44.7c2.6-0.9,4.7-3.8,4.7-6.8v-97c0-5.1-5.1-8.5-9.8-6.8l-112.7,44.2l0,0l-58.7-25.1
			c-3.4-1.7-7.7,0-9.4,3.8c-1.7,3.8,0,7.7,3.8,9.4l61.3,25.9c1.7,0.9,3.8,0.9,5.5,0l105.9-39.1"/>
	</g>
</g>
</svg>
